<svg width="26" height="25" viewBox="0 0 26 25" fill="none" xmlns="http://www.w3.org/2000/svg">
<path d="M1.37879 24.4042H3.34849C4.25627 24.4042 4.72727 23.9032 4.72727 23.0138V4.33505C4.72727 3.44559 4.25627 2.94473 3.34849 2.94473H1.37879C0.462451 2.94473 0 3.44559 0 4.33505V23.0138C0 23.9032 0.462451 24.4042 1.37879 24.4042ZM7.29645 24.4042H11.6298C12.5461 24.4042 13.0086 23.9032 13.0086 23.0138V8.11744C13.0086 7.22798 12.5461 6.72711 11.6298 6.72711H7.29645C6.38011 6.72711 5.91767 7.22798 5.91767 8.11744V23.0138C5.91767 23.9032 6.38011 24.4042 7.29645 24.4042ZM8.21279 10.4663C7.86167 10.4663 7.60476 10.1986 7.60476 9.85321C7.60476 9.52505 7.86167 9.26596 8.21279 9.26596H10.722C11.0646 9.26596 11.3215 9.52505 11.3215 9.85321C11.3215 10.1986 11.0646 10.4663 10.722 10.4663H8.21279ZM8.21279 21.8739C7.86167 21.8739 7.60476 21.6062 7.60476 21.2694C7.60476 20.9327 7.86167 20.6736 8.21279 20.6736H10.722C11.0646 20.6736 11.3215 20.9327 11.3215 21.2694C11.3215 21.6062 11.0646 21.8739 10.722 21.8739H8.21279ZM15.5778 24.4042H18.147C19.0547 24.4042 19.5257 23.9032 19.5257 23.0138V1.39033C19.5257 0.500863 19.0547 0 18.147 0H15.5778C14.67 0 14.199 0.500863 14.199 1.39033V23.0138C14.199 23.9032 14.67 24.4042 15.5778 24.4042ZM22.8228 24.4559L24.4585 24.24C25.3577 24.1364 25.7688 23.5924 25.6746 22.7029L23.6964 4.55094C23.6022 3.66148 23.0883 3.2038 22.1806 3.31606L20.5534 3.54059C19.6456 3.65285 19.2431 4.18825 19.3373 5.06908L21.3155 23.2297C21.4098 24.1105 21.915 24.5595 22.8228 24.4559Z" fill="#AC8B54"/>
</svg>
