<svg width="20" height="20" viewBox="0 0 20 20" fill="none" xmlns="http://www.w3.org/2000/svg">
<g clip-path="url(#clip0_1_6068)">
<path d="M14.3755 11.3979C15.1174 11.3979 15.723 10.7842 15.723 10.0247C15.723 9.27287 15.1174 8.65918 14.3755 8.65918C13.6261 8.65918 13.0205 9.27287 13.0205 10.0247C13.0205 10.7842 13.6261 11.3979 14.3755 11.3979Z" fill="#781D32"/>
<path d="M9.84845 11.3979C10.5979 11.3979 11.2035 10.7842 11.2035 10.0247C11.2035 9.27287 10.5979 8.65918 9.84845 8.65918C9.10654 8.65918 8.50098 9.27287 8.50098 10.0247C8.50098 10.7842 9.10654 11.3979 9.84845 11.3979Z" fill="#781D32"/>
<path d="M5.32916 11.3979C6.07102 11.3979 6.67662 10.7842 6.67662 10.0247C6.67662 9.27287 6.06345 8.65918 5.32916 8.65918C4.57972 8.65918 3.97412 9.27287 3.97412 10.0247C3.97412 10.7842 4.57972 11.3979 5.32916 11.3979Z" fill="#781D32"/>
</g>
<defs>
<clipPath id="clip0_1_6068">
<rect width="20" height="20" fill="white" transform="translate(0 0.0439453)"/>
</clipPath>
</defs>
</svg>
