<svg width="30" height="31" viewBox="0 0 30 31" fill="none" xmlns="http://www.w3.org/2000/svg">
<g clip-path="url(#clip0_3842_4576)">
<path d="M28.7099 10.6019L17.7781 5.61376C16.6342 5.09953 15.7397 4.87669 14.8452 4.89383C13.9421 4.87669 13.0476 5.09953 11.9036 5.61376L0.971908 10.6019C0.318234 10.8933 0 11.4247 0 11.956C0 12.4874 0.318234 12.9931 0.971908 13.2931L5.86583 15.5129L12.7035 12.256C12.6089 12.1532 12.566 12.0503 12.566 11.9475C12.566 11.3047 13.6669 10.7733 14.8796 10.7733C16.0837 10.7733 17.1761 11.3047 17.1761 11.9475C17.1761 12.616 16.0837 13.1474 14.8796 13.1474C14.4839 13.1474 14.1141 13.0959 13.7786 12.9931L7.19036 16.1385L11.9036 18.2897C13.0476 18.8125 13.9421 19.0268 14.8452 19.0182C15.7397 19.0268 16.6342 18.8125 17.7781 18.2897L28.7099 13.2931C29.3635 12.9931 29.6818 12.4874 29.6818 11.956C29.6818 11.4247 29.3635 10.8933 28.7099 10.6019ZM7.15596 17.6212V24.2892C8.97935 25.3947 11.6026 26.1147 14.8452 26.1147C21.3131 26.1147 25.3727 23.2778 25.3727 20.2438V16.3185L18.3543 19.5239C17.0814 20.1067 15.9461 20.3981 14.8452 20.381C13.7357 20.3981 12.6003 20.1067 11.3274 19.5239L7.15596 17.6212ZM4.30906 16.327V20.2438C4.30906 21.1781 4.86812 22.335 5.90883 23.3207V17.0556L4.30906 16.327ZM5.90883 26.6718H7.15596V24.2892C6.68291 23.9978 6.26147 23.6721 5.90883 23.3207V26.6718ZM5.04014 26.7318V29.6629C5.04014 30.4857 5.55619 31 6.37328 31H6.67431C7.5 31 8.01605 30.4857 8.01605 29.6629V26.7318C8.01605 25.9175 7.5 25.4033 6.67431 25.4033H6.37328C5.55619 25.4033 5.04014 25.9175 5.04014 26.7318Z" fill="#AC8B54"/>
</g>
<defs>
<clipPath id="clip0_3842_4576">
<rect width="30" height="31" fill="white"/>
</clipPath>
</defs>
</svg>
