<svg width="92" height="31" viewBox="0 0 92 31" fill="none" xmlns="http://www.w3.org/2000/svg">
<path d="M50.3735 3.24043C53.732 2.54962 57.4406 3.98272 59.2697 6.92097C61.9327 11.0424 61.4319 17.1857 57.6428 20.4619C54.6297 23.0435 49.7837 23.0819 46.7004 20.5966C42.0838 16.7888 42.0913 8.72006 46.7172 4.92344C47.7918 4.1044 49.0274 3.45759 50.3735 3.24043ZM51.1017 5.80146C48.7606 6.1244 47.1553 8.2979 46.7416 10.506C46.1931 13.1944 46.5066 16.3797 48.5238 18.4147C50.0159 19.8937 52.4234 20.138 54.3105 19.3451C56.2238 18.4774 57.2646 16.4312 57.5567 14.4337C57.9133 12.0365 57.5885 9.34627 55.9907 7.43205C54.8206 6.01956 52.8718 5.48882 51.1017 5.80146Z" fill="#4E4D73"/>
<path d="M65.2772 4.6454C67.5949 2.85754 70.8907 2.71058 73.5697 3.7056C75.7432 4.48627 77.3251 6.64854 77.2662 8.98118C76.1934 8.97743 75.1226 8.98305 74.0518 8.97743C74.092 6.86477 72.0617 5.7022 70.0595 5.73496C68.5993 5.77427 66.6308 6.38832 66.6804 8.13405C66.6102 9.97713 68.7079 10.5051 70.1279 10.8467C72.1975 11.545 74.6312 11.5965 76.3011 13.1588C78.1123 14.8334 78.2733 17.9064 76.7682 19.8262C74.6405 22.5146 70.7026 22.7991 67.5912 22.0475C64.7587 21.44 62.6329 18.7348 62.7443 15.834C63.8189 15.8284 64.8953 15.8284 65.9699 15.834C65.9868 17.0012 66.4164 18.2293 67.4199 18.9052C69.2667 20.0649 71.9663 20.1735 73.7476 18.835C74.8998 17.8456 74.839 15.6533 73.4302 14.9242C70.8636 13.7204 67.8411 13.7298 65.3886 12.2573C62.764 10.6277 62.895 6.42857 65.2772 4.6454Z" fill="#4E4D73"/>
<path d="M80.035 3.33775C83.7277 3.33962 87.4214 3.334 91.1141 3.34149C91.1085 3.69251 91.1066 4.0454 91.1066 4.39548C87.7162 4.39548 84.3259 4.39174 80.9355 4.39923C80.9261 6.46041 80.9355 8.52252 80.9317 10.5856C80.7969 10.5931 80.5236 10.6062 80.3888 10.6137C83.9748 11.9728 87.4981 13.492 91.0823 14.8586C91.1047 15.2611 91.1141 15.6636 91.116 16.0661C87.4214 17.5161 83.7277 18.9688 80.0313 20.4113C80.035 20.0312 80.0369 19.6503 80.0425 19.2702C81.176 18.7919 82.391 18.4559 83.4638 17.869C83.49 16.2056 83.4843 14.5394 83.4619 12.8761C82.3171 12.4586 81.1948 11.9878 80.049 11.5778C80.0125 8.83142 80.0406 6.08411 80.035 3.33775ZM84.3801 13.2206C84.3745 14.6705 84.3764 16.1214 84.3801 17.5713C86.2672 16.859 88.1637 16.1663 90.0395 15.4259C88.1505 14.6976 86.2691 13.9497 84.3801 13.2206Z" fill="#4E4D73"/>
<path d="M37.6713 3.52215C38.6532 3.52215 39.636 3.51466 40.6179 3.52777C40.6142 4.44884 40.6105 5.37085 40.6217 6.29192C39.6398 6.33591 38.6551 6.31251 37.6713 6.30877C37.6656 5.38021 37.6656 4.45165 37.6713 3.52215Z" fill="#4E4D73"/>
<path d="M37.6732 8.61894C38.6467 8.61333 39.6211 8.62643 40.5965 8.60771C40.6442 13.0633 40.5946 17.5189 40.6208 21.9726C39.637 21.9895 38.6542 21.9801 37.6722 21.9801C37.6676 17.5264 37.6638 13.0727 37.6732 8.61894Z" fill="#4E4D73"/>
<path d="M80.035 21.4344C83.7258 21.4344 87.4157 21.4325 91.1066 21.4344C91.0701 23.3346 91.2095 25.2441 91.0083 27.1387C90.9325 28.3041 90.1144 29.4872 88.8919 29.6276C87.6067 29.8654 86.3103 29.0585 85.9022 27.8313C85.583 30.4925 81.5149 30.867 80.5011 28.5203C79.6288 26.2719 80.1932 23.7848 80.035 21.4344ZM80.9355 22.4959C80.9888 24.1723 80.7763 25.8825 81.1161 27.5384C81.454 29.1025 83.7605 29.5621 84.7461 28.3658C85.8263 26.6192 85.1692 24.4307 85.3518 22.4921C83.8812 22.4921 82.4079 22.4884 80.9355 22.4959ZM86.256 22.494C86.3561 24.1555 86.0051 25.89 86.5068 27.4981C87.0423 29.0623 89.607 28.9406 90.0283 27.3596C90.3905 25.7702 90.1312 24.1115 90.2052 22.494C88.8891 22.4884 87.5721 22.4884 86.256 22.494Z" fill="#4E4D73"/>
<path d="M37.661 24.6666H39.432C40.8389 24.6666 41.8152 25.5624 41.8152 26.915C41.8152 28.2685 40.8389 29.1568 39.432 29.1568H37.661V24.6666ZM39.432 28.3153C40.3203 28.3153 40.8389 27.676 40.8389 26.915C40.8389 26.1203 40.354 25.5081 39.432 25.5081H38.6177V28.3162H39.432V28.3153Z" fill="#4E4D73"/>
<path d="M43.9494 25.8245C44.9192 25.8245 45.5791 26.5518 45.5791 27.6151V27.8033H43.1622C43.2165 28.2142 43.546 28.5577 44.0983 28.5577C44.4016 28.5577 44.7582 28.437 44.9669 28.2348L45.3442 28.7871C45.0212 29.0838 44.5092 29.2382 44.0047 29.2382C43.0153 29.2382 42.2674 28.5718 42.2674 27.5281C42.2664 26.5855 42.96 25.8245 43.9494 25.8245ZM43.1491 27.2248H44.7516C44.731 26.915 44.5158 26.504 43.9504 26.504C43.4178 26.504 43.1894 26.9019 43.1491 27.2248Z" fill="#4E4D73"/>
<path d="M45.7345 25.905H46.6499L47.498 28.1674L48.346 25.905H49.2681L47.9613 29.1568H47.0393L45.7345 25.905Z" fill="#4E4D73"/>
<path d="M51.1271 25.8245C52.0968 25.8245 52.7567 26.5518 52.7567 27.6151V27.8033H50.3398C50.3941 28.2142 50.7236 28.5577 51.2759 28.5577C51.5792 28.5577 51.9358 28.437 52.1445 28.2348L52.5218 28.7871C52.1988 29.0838 51.6868 29.2382 51.1823 29.2382C50.1929 29.2382 49.445 28.5718 49.445 27.5281C49.444 26.5855 50.1377 25.8245 51.1271 25.8245ZM50.3258 27.2248H51.9283C51.9077 26.915 51.6924 26.504 51.1271 26.504C50.5954 26.504 50.367 26.9019 50.3258 27.2248Z" fill="#4E4D73"/>
<path d="M53.3764 24.6666H54.2319V29.1577H53.3764V24.6666Z" fill="#4E4D73"/>
<path d="M54.8712 27.5281C54.8712 26.6061 55.518 25.8245 56.5879 25.8245C57.6653 25.8245 58.3112 26.6051 58.3112 27.5281C58.3112 28.4576 57.6644 29.2382 56.5879 29.2382C55.5171 29.2382 54.8712 28.4566 54.8712 27.5281ZM57.4229 27.5281C57.4229 27.0235 57.1196 26.5855 56.5879 26.5855C56.0563 26.5855 55.7595 27.0235 55.7595 27.5281C55.7595 28.0401 56.0553 28.4772 56.5879 28.4772C57.1205 28.4772 57.4229 28.0392 57.4229 27.5281Z" fill="#4E4D73"/>
<path d="M58.9449 30.3961V25.905H59.8005V26.3159C60.0495 25.9995 60.4061 25.8245 60.8039 25.8245C61.6389 25.8245 62.2445 26.4441 62.2445 27.5281C62.2445 28.612 61.6389 29.2382 60.8039 29.2382C60.4202 29.2382 60.0635 29.0763 59.8005 28.7403V30.3971H58.9449V30.3961ZM60.5334 26.5855C60.2573 26.5855 59.9409 26.7474 59.7996 26.9561V28.1075C59.9409 28.3097 60.2573 28.4782 60.5334 28.4782C61.0248 28.4782 61.3553 28.0944 61.3553 27.529C61.3553 26.9693 61.0248 26.5855 60.5334 26.5855Z" fill="#4E4D73"/>
<path d="M66.9163 27.1041C66.9163 26.8008 66.7815 26.5855 66.4314 26.5855C66.1282 26.5855 65.8792 26.7877 65.7584 26.9627V29.1577H64.8963V27.1041C64.8963 26.8008 64.7615 26.5855 64.4114 26.5855C64.1147 26.5855 63.8657 26.7877 63.7384 26.9693V29.1577H62.8829V25.9059H63.7384V26.3299C63.8732 26.1343 64.3038 25.8254 64.8018 25.8254C65.2801 25.8254 65.5824 26.0473 65.7041 26.4179C65.8923 26.1212 66.3238 25.8254 66.8218 25.8254C67.4208 25.8254 67.7775 26.1418 67.7775 26.8083V29.1577H66.9154V27.1041H66.9163Z" fill="#4E4D73"/>
<path d="M70.0951 25.8245C71.0649 25.8245 71.7248 26.5518 71.7248 27.6151V27.8033H69.3079C69.3622 28.2142 69.6917 28.5577 70.244 28.5577C70.5473 28.5577 70.9039 28.437 71.1126 28.2348L71.4899 28.7871C71.1669 29.0838 70.6549 29.2382 70.1504 29.2382C69.161 29.2382 68.4131 28.5718 68.4131 27.5281C68.4112 26.5855 69.1048 25.8245 70.0951 25.8245ZM69.2939 27.2248H70.8964C70.8758 26.915 70.6605 26.504 70.0951 26.504C69.5625 26.504 69.3341 26.9019 69.2939 27.2248Z" fill="#4E4D73"/>
<path d="M74.5386 27.1911C74.5386 26.7399 74.3027 26.5855 73.9395 26.5855C73.6025 26.5855 73.3404 26.7736 73.1991 26.9693V29.1577H72.3435V25.9059H73.1991V26.3299C73.4078 26.081 73.8047 25.8254 74.3373 25.8254C75.0506 25.8254 75.3941 26.2298 75.3941 26.8626V29.1587H74.5386V27.1911Z" fill="#4E4D73"/>
<path d="M76.4107 28.349V26.6519H75.8724V25.9049H76.4107V25.0157H77.2728V25.9049H77.9327V26.6519H77.2728V28.1196C77.2728 28.3218 77.3804 28.4763 77.5695 28.4763C77.6977 28.4763 77.8185 28.4295 77.8662 28.3817L78.0478 29.0285C77.9196 29.1427 77.6912 29.2373 77.3345 29.2373C76.7336 29.2382 76.4107 28.9284 76.4107 28.349Z" fill="#4E4D73"/>
<path d="M27.3869 19.0727C27.386 19.0718 27.385 19.0709 27.3841 19.0699C27.4281 18.9211 27.473 18.7732 27.5114 18.6197C29.1542 12.0758 25.1451 4.33839 18.3615 0.264709C21.3344 4.2944 22.6486 9.17589 21.4814 13.4452C21.3775 13.8262 21.2521 14.1912 21.1135 14.5469C20.9637 14.4487 20.7737 14.3363 20.5201 14.1959C20.5201 14.1959 13.7721 10.0296 6.4578 2.66006C6.26591 2.4663 10.3583 8.50849 15.0021 13.4153C12.8136 12.1862 6.71615 7.74936 2.85588 4.21671C3.33046 5.00767 3.89396 5.76961 4.51456 6.50254C7.73832 10.5903 11.9421 15.6346 16.9781 19.508C13.4398 21.6731 8.43942 21.8416 3.46057 19.5099C2.22967 18.9333 1.07178 18.2369 0 17.4459C2.10705 20.8166 5.35326 23.7249 9.30339 25.4229C14.0145 27.4476 18.6985 27.31 22.1881 25.4557L22.1853 25.4594C22.2012 25.4491 22.2218 25.4388 22.2377 25.4285C22.3809 25.3518 22.5232 25.2731 22.6627 25.1898C24.3391 24.3193 27.6499 23.4366 29.4275 26.8953C29.8628 27.7415 30.7876 23.2569 27.3869 19.0727Z" fill="#FE7A71"/>
</svg>
