<?xml version="1.0" encoding="UTF-8"?>
<svg id="Layer_1" data-name="Layer 1" xmlns="http://www.w3.org/2000/svg" viewBox="0 0 973.45 321.91">
  <defs>
    <style>
      .cls-1 {
        fill: #515173;
      }

      .cls-1, .cls-2 {
        stroke-width: 0px;
      }

      .cls-2 {
        fill: #ff7971;
      }
    </style>
  </defs>
  <g id="Capa_2" data-name="Capa 2">
    <g>
      <g>
        <path class="cls-1" d="M538.15,31.79c35.88-7.38,75.5,7.93,95.04,39.32,28.45,44.03,23.1,109.66-17.38,144.66-32.19,27.58-83.96,27.99-116.9,1.44-49.32-40.68-49.24-126.88.18-167.44,11.48-8.75,24.68-15.66,39.06-17.98ZM545.93,59.15c-25.01,3.45-42.16,26.67-46.58,50.26-5.86,28.72-2.51,62.75,19.04,84.49,15.94,15.8,41.66,18.41,61.82,9.94,20.44-9.27,31.56-31.13,34.68-52.47,3.81-25.61.34-54.35-16.73-74.8-12.5-15.09-33.32-20.76-52.23-17.42Z"/>
        <path class="cls-1" d="M697.37,46.8c24.76-19.1,59.97-20.67,88.59-10.04,23.22,8.34,40.12,31.44,39.49,56.36-11.46-.04-22.9.02-34.34-.04.43-22.57-21.26-34.99-42.65-34.64-15.6.42-36.63,6.98-36.1,25.63-.75,19.69,21.66,25.33,36.83,28.98,22.11,7.46,48.11,8.01,65.95,24.7,19.35,17.89,21.07,50.72,4.99,71.23-22.73,28.72-64.8,31.76-98.04,23.73-30.26-6.49-52.97-35.39-51.78-66.38,11.48-.06,22.98-.06,34.46,0,.18,12.47,4.77,25.59,15.49,32.81,19.73,12.39,48.57,13.55,67.6-.75,12.31-10.57,11.66-33.99-3.39-41.78-27.42-12.86-59.71-12.76-85.91-28.49-28.04-17.41-26.64-62.27-1.19-81.32Z"/>
        <path class="cls-1" d="M855.03,32.83c39.45.02,78.91-.04,118.36.04-.06,3.75-.08,7.52-.08,11.26-36.22,0-72.44-.04-108.66.04-.1,22.02,0,44.05-.04,66.09-1.44.08-4.36.22-5.8.3,38.31,14.52,75.95,30.75,114.24,45.35.24,4.3.34,8.6.36,12.9-39.47,15.49-78.93,31.01-118.42,46.42.04-4.06.06-8.13.12-12.19,12.11-5.11,25.09-8.7,36.55-14.97.28-17.77.22-35.57-.02-53.34-12.23-4.46-24.22-9.49-36.46-13.87-.39-29.34-.09-58.69-.15-88.03ZM901.45,138.41c-.06,15.49-.04,30.99,0,46.48,20.16-7.61,40.42-15.01,60.46-22.92-20.18-7.78-40.28-15.77-60.46-23.56Z"/>
        <path class="cls-1" d="M402.45,34.8c10.49,0,20.99-.08,31.48.06-.04,9.84-.08,19.69.04,29.53-10.49.47-21.01.22-31.52.18-.06-9.92-.06-19.84,0-29.77Z"/>
        <path class="cls-1" d="M402.47,89.25c10.4-.06,20.81.08,31.23-.12.51,47.6-.02,95.2.26,142.78-10.51.18-21.01.08-31.5.08-.05-47.58-.09-95.16,0-142.74Z"/>
        <path class="cls-1" d="M855.03,226.16c39.43,0,78.85-.02,118.28,0-.39,20.3,1.1,40.7-1.05,60.94-.81,12.45-9.55,25.09-22.61,26.59-13.73,2.54-27.58-6.08-31.94-19.19-3.41,28.43-46.87,32.43-57.7,7.36-9.32-24.02-3.29-50.59-4.98-75.7ZM864.65,237.5c.57,17.91-1.7,36.18,1.93,53.87,3.61,16.71,28.25,21.62,38.78,8.84,11.54-18.66,4.52-42.04,6.47-62.75-15.71,0-31.45-.04-47.18.04ZM921.49,237.48c1.07,17.75-2.68,36.28,2.68,53.46,5.72,16.71,33.12,15.41,37.62-1.48,3.87-16.98,1.1-34.7,1.89-51.98-14.06-.06-28.13-.06-42.19,0Z"/>
      </g>
      <g>
        <path class="cls-1" d="M402.34,260.69h18.92c15.03,0,25.46,9.57,25.46,24.02s-10.43,23.95-25.46,23.95h-18.92v-47.97ZM421.26,299.67c9.49,0,15.03-6.83,15.03-14.96s-5.18-15.03-15.03-15.03h-8.7v30h8.7Z"/>
        <path class="cls-1" d="M469.52,273.06c10.36,0,17.41,7.77,17.41,19.13v2.01h-25.82c.58,4.39,4.1,8.06,10,8.06,3.24,0,7.05-1.29,9.28-3.45l4.03,5.9c-3.45,3.17-8.92,4.82-14.31,4.82-10.57,0-18.56-7.12-18.56-18.27-.01-10.07,7.4-18.2,17.97-18.2ZM460.97,288.02h17.12c-.22-3.31-2.52-7.7-8.56-7.7-5.69,0-8.13,4.25-8.56,7.7Z"/>
        <path class="cls-1" d="M488.59,273.92h9.78l9.06,24.17,9.06-24.17h9.85l-13.96,34.74h-9.85l-13.94-34.74Z"/>
        <path class="cls-1" d="M546.2,273.06c10.36,0,17.41,7.77,17.41,19.13v2.01h-25.82c.58,4.39,4.1,8.06,10,8.06,3.24,0,7.05-1.29,9.28-3.45l4.03,5.9c-3.45,3.17-8.92,4.82-14.31,4.82-10.57,0-18.56-7.12-18.56-18.27-.01-10.07,7.4-18.2,17.97-18.2ZM537.64,288.02h17.12c-.22-3.31-2.52-7.7-8.56-7.7-5.68,0-8.12,4.25-8.56,7.7Z"/>
        <path class="cls-1" d="M570.23,260.69h9.14v47.98h-9.14v-47.98Z"/>
        <path class="cls-1" d="M586.2,291.26c0-9.85,6.91-18.2,18.34-18.2s18.41,8.34,18.41,18.2-6.91,18.27-18.41,18.27-18.34-8.35-18.34-18.27ZM613.46,291.26c0-5.39-3.24-10.07-8.92-10.07s-8.85,4.68-8.85,10.07,3.16,10.14,8.85,10.14,8.92-4.68,8.92-10.14Z"/>
        <path class="cls-1" d="M629.72,321.9v-47.98h9.14v4.39c2.66-3.38,6.47-5.25,10.72-5.25,8.92,0,15.39,6.62,15.39,18.2s-6.47,18.27-15.39,18.27c-4.1,0-7.91-1.73-10.72-5.32v17.7h-9.14ZM646.69,281.19c-2.95,0-6.33,1.73-7.84,3.96v12.3c1.51,2.16,4.89,3.96,7.84,3.96,5.25,0,8.78-4.1,8.78-10.14s-3.53-10.08-8.78-10.08Z"/>
        <path class="cls-1" d="M714.88,286.73c0-3.24-1.44-5.54-5.18-5.54-3.24,0-5.9,2.16-7.19,4.03v23.45h-9.21v-21.94c0-3.24-1.44-5.54-5.18-5.54-3.17,0-5.83,2.16-7.19,4.1v23.38h-9.14v-34.74h9.14v4.53c1.44-2.09,6.04-5.39,11.36-5.39s8.34,2.37,9.64,6.33c2.01-3.17,6.62-6.33,11.94-6.33,6.4,0,10.21,3.38,10.21,10.5v25.1h-9.21v-21.94h.01Z"/>
        <path class="cls-1" d="M748.84,273.06c10.36,0,17.41,7.77,17.41,19.13v2.01h-25.82c.58,4.39,4.1,8.06,10,8.06,3.24,0,7.05-1.29,9.28-3.45l4.03,5.9c-3.45,3.17-8.92,4.82-14.31,4.82-10.57,0-18.56-7.12-18.56-18.27-.02-10.07,7.39-18.2,17.97-18.2ZM740.28,288.02h17.12c-.22-3.31-2.52-7.7-8.56-7.7-5.69,0-8.13,4.25-8.56,7.7Z"/>
        <path class="cls-1" d="M796.31,287.66c0-4.82-2.52-6.47-6.4-6.47-3.6,0-6.4,2.01-7.91,4.1v23.38h-9.14v-34.74h9.14v4.53c2.23-2.66,6.47-5.39,12.16-5.39,7.62,0,11.29,4.32,11.29,11.08v24.53h-9.14v-21.02h0Z"/>
        <path class="cls-1" d="M816.31,300.03v-18.13h-5.75v-7.98h5.75v-9.5h9.21v9.5h7.05v7.98h-7.05v15.68c0,2.16,1.15,3.81,3.17,3.81,1.37,0,2.66-.5,3.17-1.01l1.94,6.91c-1.37,1.22-3.81,2.23-7.62,2.23-6.42.01-9.87-3.3-9.87-9.49Z"/>
      </g>
      <path class="cls-2" d="M292.58,200.93s-.02-.02-.03-.03c.47-1.59.95-3.17,1.36-4.81C311.46,126.18,268.63,43.52,196.16,0c31.76,43.05,45.8,95.2,33.33,140.81-1.11,4.07-2.45,7.97-3.93,11.77-1.6-1.05-3.63-2.25-6.34-3.75,0,0-72.09-44.51-150.23-123.24-2.05-2.07,41.67,62.48,91.28,114.9-23.38-13.13-88.52-60.53-129.76-98.27,5.07,8.45,11.09,16.59,17.72,24.42,34.44,43.67,79.35,97.56,133.15,138.94-37.8,23.13-91.22,24.93-144.41.02-13.15-6.16-25.52-13.6-36.97-22.05,22.51,36.01,57.19,67.08,99.39,85.22,50.33,21.63,100.37,20.16,137.65.35l-.03.04c.17-.11.39-.22.56-.33,1.53-.82,3.05-1.66,4.54-2.55,17.91-9.3,53.28-18.73,72.27,18.22,4.65,9.04,14.53-38.87-21.8-83.57Z"/>
    </g>
  </g>
</svg>