<svg width="17" height="17" viewBox="0 0 17 17" fill="none" xmlns="http://www.w3.org/2000/svg">
<g clip-path="url(#clip0_1_3919)">
<path d="M0 6.81886C0 10.5719 3.04338 13.631 6.78392 13.631C8.29222 13.631 9.67985 13.1324 10.806 12.2901L15.2236 16.7372C15.3912 16.9124 15.6258 17 15.8671 17C16.3967 17 16.752 16.5957 16.752 16.0903C16.752 15.8411 16.6648 15.6254 16.504 15.4569L12.1065 11.0166C13.0181 9.86445 13.5678 8.40226 13.5678 6.81886C13.5678 3.05905 10.5244 0 6.78392 0C3.04338 0 0 3.05905 0 6.81886ZM1.25355 6.81886C1.25355 3.75307 3.73383 1.26001 6.78392 1.26001C9.83402 1.26001 12.3076 3.75307 12.3076 6.81886C12.3076 9.87791 9.83402 12.371 6.78392 12.371C3.73383 12.371 1.25355 9.87791 1.25355 6.81886Z" fill="#202C59"/>
</g>
<defs>
<clipPath id="clip0_1_3919">
<rect width="17" height="17" fill="white"/>
</clipPath>
</defs>
</svg>
