<svg width="31" height="31" viewBox="0 0 31 31" fill="none" xmlns="http://www.w3.org/2000/svg">
<rect x="0.591797" y="0.645508" width="29.5739" height="29.5739" rx="9" fill="#F4F7FE"/>
<path d="M16.3683 9.99455C16.3683 9.44768 15.9265 9.00586 15.3796 9.00586C14.8327 9.00586 14.3909 9.44768 14.3909 9.99455V14.4436H9.94181C9.39494 14.4436 8.95312 14.8855 8.95312 15.4323C8.95312 15.9792 9.39494 16.421 9.94181 16.421H14.3909V20.8701C14.3909 21.417 14.8327 21.8588 15.3796 21.8588C15.9265 21.8588 16.3683 21.417 16.3683 20.8701V16.421H20.8174C21.3642 16.421 21.8061 15.9792 21.8061 15.4323C21.8061 14.8855 21.3642 14.4436 20.8174 14.4436H16.3683V9.99455Z" fill="#202C59"/>
</svg>
