<svg width="20" height="20" viewBox="0 0 20 20" fill="none" xmlns="http://www.w3.org/2000/svg">
<g clip-path="url(#clip0_1_3878)">
<path d="M19.7199 9.99615C19.7199 15.4968 15.2915 19.9847 9.85613 19.9847C4.42846 19.9847 0 15.4968 0 9.99615C0 4.48791 4.42846 0 9.85613 0C15.2915 0 19.7199 4.48791 19.7199 9.99615ZM13.1037 9.98083C13.1037 10.7633 13.7245 11.3924 14.4966 11.3924C15.2612 11.3924 15.8894 10.7633 15.8894 9.98083C15.8894 9.20602 15.2612 8.57693 14.4966 8.57693C13.7245 8.57693 13.1037 9.20602 13.1037 9.98083ZM8.47082 9.98083C8.47082 10.7633 9.09158 11.3924 9.85613 11.3924C10.6283 11.3924 11.249 10.7633 11.249 9.98083C11.249 9.20602 10.6283 8.57693 9.85613 8.57693C9.09158 8.57693 8.47082 9.20602 8.47082 9.98083ZM3.83043 9.98083C3.83043 10.7633 4.45874 11.3924 5.21574 11.3924C5.98788 11.3924 6.60862 10.7633 6.60862 9.98083C6.60862 9.20602 5.98031 8.57693 5.21574 8.57693C4.45874 8.57693 3.83043 9.20602 3.83043 9.98083Z" fill="#202C59"/>
</g>
<defs>
<clipPath id="clip0_1_3878">
<rect width="20" height="20" fill="white"/>
</clipPath>
</defs>
</svg>
