<svg width="21" height="21" viewBox="0 0 21 21" fill="none" xmlns="http://www.w3.org/2000/svg">
<path d="M12.066 2.33582C12.066 1.50782 11.397 0.838867 10.569 0.838867C9.74103 0.838867 9.07208 1.50782 9.07208 2.33582V9.07208H2.33582C1.50782 9.07208 0.838867 9.74103 0.838867 10.569C0.838867 11.397 1.50782 12.066 2.33582 12.066H9.07208V18.8022C9.07208 19.6302 9.74103 20.2992 10.569 20.2992C11.397 20.2992 12.066 19.6302 12.066 18.8022V12.066H18.8022C19.6302 12.066 20.2992 11.397 20.2992 10.569C20.2992 9.74103 19.6302 9.07208 18.8022 9.07208H12.066V2.33582Z" fill="white"/>
</svg>
